<svg version="1.2" xmlns="http://www.w3.org/2000/svg" viewBox="0 0 512 512" width="512" height="512">
	<title>logo-svg</title>
	<style>
		.s0 { fill: #ffffff } 
	</style>
	<g id="Layer">
		<path id="Layer" class="s0" d="m308.9 27.9c2.3 0.6 6 1.6 8.3 2.2l4.1 1.1-11.5 11.6c-6.4 6.4-12.1 12.7-12.7 13.9-1.4 2.8-1.4 7.8 0 10.6 0.6 1.2 10.4 11.5 21.7 22.9l20.6 20.7-9.1 9.4c-9.2 9.5-11.4 13.5-10 18.6 0.3 1.4-1.8 4.1-7.8 10.1l-8.3 8.3-22.2-10.2c-12.2-5.5-23.2-10.4-24.5-10.7-1.7-0.4-7.8 1.8-21.6 8.1l-19.2 8.7-23.7-23.7-23.8-23.7-0.5-7.7-0.5-7.6 7.6-7.8c4.3-4.3 8.4-8.2 9.3-8.7 1.1-0.6 5.3 0.1 12.5 2 12 3.3 15 3.6 15.7 1.7 0.4-1.1-3.6-13.8-8.2-25.9-1.2-3.1-3.2-6.3-4.4-7.1-1.2-0.8-8.2-2.7-15.5-4.2-7.3-1.6-12.9-3.2-12.5-3.6 1.2-1.2 24.2-7.6 35.1-9.8 8.5-1.7 18.6-3.1 32.7-4.5 14.3-1.4 54.4 1.7 68.4 5.3z"/>
		<path id="Layer" class="s0" d="m155.5 44c0.5 0-2.8 3.8-7.5 8.4l-8.5 8.5-6-1.3-6-1.2 8.5-4.6c4.7-2.5 10.8-5.7 13.5-7.2 2.8-1.4 5.4-2.5 6-2.6z"/>
		<path id="Layer" class="s0" d="m85.4 91c0.1 0 0.1 5.4 0.1 12v12l-11.2 11.2c-10.4 10.5-11.3 11.6-11.3 15.1 0 6.8 6 32 8.2 34.4 2.3 2.5 30.1 12.8 32.3 11.9 2.1-0.8 1.9-2.7-1.5-14.6-1.6-5.8-3-11.2-3-12 0-0.9 3.9-5.4 8.8-10.1l8.7-8.5 7.6 0.4 7.6 0.3 16.7 16.8 16.8 16.8-18.4 8.3c-29.6 13.4-29.5 13.4-30.9 17.8-1.5 5.3-0.6 110.3 1.1 121.6l1.2 7.8-7.2 7.3c-6.4 6.5-7.7 7.3-12 7.9-6.4 0.9-16.2 5.9-20.1 10.4-15 17.1-9.6 43.5 11 53 4.6 2.2 7.1 2.6 13.6 2.6 9.7 0 17-2.9 23.5-9.4 4.4-4.4 9-12.9 9-16.8 0-1.2 0.3-2.2 0.8-2.2 0.4 0 3.7 4.1 7.2 9.2 12.3 17.4 31.1 34.4 54.1 48.7 18.5 11.5 51.8 27.1 57.9 27.1 3.7 0 21.5-7.4 36.6-15.1 35.5-18.2 59.4-37.8 76.7-62.6l5-7.2 4.4 3.1c6.7 4.5 15 8 34.7 14.3 16.5 5.2 18.1 5.5 19.2 4 1-1.4 0-5.2-5.6-22.1-3.8-11.2-7.7-21.8-8.6-23.6-3.3-6.4-9.3-14.4-16.8-22.5l-7.6-8.1 1.1-6.9c1.6-10 2.5-114.5 1-120.1-1.4-5-0.2-4.3-35.4-20.3-13.3-6-24.3-11.2-24.6-11.4-0.2-0.3 1.2-2.3 3.3-4.4 2.6-2.6 4.4-3.7 5.7-3.4 5.1 1.4 9-0.8 18.6-10l9.4-9.1 20.7 20.6c11.4 11.3 21.7 21.1 22.9 21.7 2.8 1.4 7.8 1.4 10.6 0 1.2-0.6 11.1-9.9 21.9-20.7 10.9-10.8 19.9-19.4 20.1-19.2 0.3 0.3 2.8 5.2 5.7 11 11.3 22.6 19.2 47.5 23.2 73.5 3 19.8 3 51.2 0 71-8.1 52.7-32.1 100.4-69.3 137.6-60.4 60.5-149 85.1-231.9 64.4-24.8-6.2-55.1-19.5-75.5-33-58.5-38.9-96.9-99.2-107.7-169-3-19.8-3-51.2 0-71 7.7-49.7 28.2-92.6 62.2-130.3 5.1-5.6 9.3-10.2 9.4-10.2z"/>
	</g>
</svg>